<?xml version="1.0" encoding="UTF-8"?>
<svg width="566px" height="923px" viewBox="0 0 566 923" version="1.1" xmlns="http://www.w3.org/2000/svg" xmlns:xlink="http://www.w3.org/1999/xlink">
    <title>人物组件/男/坐/介绍</title>
    <defs>
        <polygon id="path-1" points="0.741429538 0.292019185 79.7165809 0.292019185 79.7165809 10 0.741429538 10"></polygon>
        <polygon id="path-3" points="0.78136684 0.373 60.3851634 0.373 60.3851634 49.9836 0.78136684 49.9836"></polygon>
        <polygon id="path-5" points="0 526.627 537.687 526.627 537.687 1 0 1"></polygon>
    </defs>
    <g id="人物组件/男/坐/介绍" stroke="none" stroke-width="1" fill="none" fill-rule="evenodd">
        <g id="编组" transform="translate(14.000000, 198.000000)">
            <path d="M253.1221,318.7273 L115.2891,319.501422 C110.9121,319.5253 107.3431,315.9973 107.318968,311.6193 C107.2941,307.2413 110.8231,303.6723 115.2001,303.6483 L253.0331,302.874178 C257.4111,302.8503 260.9791,306.3783 261.004222,310.7563 C261.0281,315.1343 257.5001,318.7033 253.1221,318.7273" id="Fill-1" fill="#91A8EA"></path>
            <g transform="translate(145.000000, 516.627000)">
                <mask id="mask-2" fill="white">
                    <use xlink:href="#path-1"></use>
                </mask>
                <g id="Clip-4"></g>
                <path d="M75.0845,9.6091 L5.4265,10.0001705 C2.8535,10.0141 0.7565,7.9411 0.741429538,5.3681 C0.7275,2.7951 2.8015,0.6971 5.3735,0.6831 L75.0325,0.292019185 C77.6045,0.2771 79.7025,2.3521 79.7165809,4.9241 C79.7315,7.4971 77.6575,9.5941 75.0845,9.6091" id="Fill-3" fill="#91A8EA" mask="url(#mask-2)"></path>
            </g>
            <polygon id="Fill-5" fill="#5369AB" points="193.9778 517.0656 176.6568 517.1626 175.5448 319.1626 192.8668 319.0656"></polygon>
            <path d="M365.4093,484.8464 C365.4093,484.8464 358.7033,518.4544 365.8193,518.2844 C373.0503,518.1114 432.6223,518.4064 436.2853,517.1164 C440.0433,515.7924 441.6913,509.8604 435.8383,507.8504 C432.4463,506.6864 401.3933,487.1804 399.8053,484.4254 C393.5893,484.5014 365.4093,484.8464 365.4093,484.8464" id="Fill-7" fill="#19152D"></path>
            <path d="M209.0835,248.799271 C165.6935,248.8291 134.3555,248.2341 106.7645,248.2341 C116.0335,213.9741 114.5825,201.6601 118.0725,184.2571 L66.1945,174.5511 C66.1945,174.5511 83.0255,121.9151 96.0195,109.6761 C104.8955,101.3161 141.4725,91.9891 141.4725,91.9891 C141.4725,91.9891 147.2675,91.4471 152.2945,77.3651 C160.2145,76.4851 184.4345,76.9251 184.4345,76.9251 C184.4345,76.9251 191.6095,100.4581 206.9485,107.7981 C222.9065,115.4351 238.2635,119.9481 243.7625,126.4481 C254.0055,138.5531 272.2765,177.6791 272.2765,177.6791 L230.4415,190.3641 C230.1265,192.5471 216.6875,228.3211 209.0835,248.799271" id="Fill-9" fill="#F17E55"></path>
            <path d="M146.7265,87.7224 C146.7265,87.7224 182.7365,216.7334 137.7605,248.7444 C174.2515,247.7274 194.1375,248.7294 194.1375,248.7294 C194.1375,248.7294 209.5285,174.9114 191.0085,91.7594 C182.1785,88.3144 146.7265,87.7224 146.7265,87.7224" id="Fill-11" fill="#FFFFFF"></path>
            <polyline id="Stroke-13" stroke="#FFAE92" points="146.7265 87.7224 132.8565 109.6214 146.7265 117.4544 137.7605 131.0304 159.0005 155.1054"></polyline>
            <polyline id="Stroke-15" stroke="#FFAE92" points="191.0089 91.7595 210.3619 117.4545 203.6449 125.1955 213.8639 131.0305 200.1369 156.1135"></polyline>
            <path d="M146.748,87.7776 C146.748,87.7776 169.251,110.4756 185.097,109.6546 C193.818,108.7966 192.038,93.6106 191.03,91.8146 C188.636,86.6956 186.242,83.4336 185.053,77.0456 C190.95,78.1556 204.148,78.6586 200.045,54.1606 C195.942,29.6626 192.348,18.4416 190.478,16.2616 C184.016,19.2026 155.84,26.4596 155.84,26.4596 L160.76,50.2566 C160.76,50.2566 156.747,37.8576 144.757,41.5196 C142.015,42.9646 135.863,54.5836 153.677,61.2966 C153.687,62.8236 149.414,83.8126 146.748,87.7776" id="Fill-17" fill="#FFAE92"></path>
            <g transform="translate(137.000000, 0.627000)">
                <mask id="mask-4" fill="white">
                    <use xlink:href="#path-3"></use>
                </mask>
                <g id="Clip-20"></g>
                <path d="M23.9452,49.9836 C23.9452,49.9836 26.8932,46.3916 24.6532,40.7466 C22.4142,35.1016 22.6662,30.1566 27.5132,30.0196 C32.3602,29.8816 47.5162,33.0816 52.8092,25.4686 C58.1022,17.8556 61.3212,8.8116 60.1422,1.0836 C53.2222,0.1706 8.9152,-2.9724 8.6952,18.1386 C5.4252,19.2886 -5.4608,28.2116 5.6852,43.9796 C8.4122,41.1106 15.1042,35.8136 23.9452,49.9836" id="Fill-19" fill="#13386B" mask="url(#mask-4)"></path>
            </g>
            <path d="M195.257,13.7004 C195.257,13.7004 198.382,24.6484 196.088,33.6284 C194.509,27.1624 191.388,17.7794 191.388,17.7794 L195.257,13.7004 Z" id="Fill-21" fill="#113560"></path>
            <path d="M197.8418,41.9739 C197.8418,41.9739 202.2968,50.3799 203.5948,53.6529 C201.6588,56.3989 197.9498,57.3389 197.9498,57.3389 L197.8418,41.9739 Z" id="Fill-23" fill="#FFAE92"></path>
            <path d="M185.0525,77.0456 C185.0525,77.0456 178.0675,75.8536 173.8005,70.5156 C179.7795,79.6586 185.1605,85.5526 188.3485,86.4736 C186.9515,83.4596 186.2205,82.4226 185.0525,77.0456" id="Fill-25" fill="#FF7D65"></path>
            <path d="M68.4297,174.9695 C68.4297,174.9695 51.1557,227.8315 65.1057,242.1285 C84.7037,262.2135 177.1017,225.0415 177.1017,225.0415 L169.6927,202.9355 L108.5127,208.9725 L118.0727,184.2575 L68.4297,174.9695 Z" id="Fill-27" fill="#FFAE92"></path>
            <path d="M177.1017,225.0417 C177.1017,225.0417 170.1517,225.1917 165.5807,216.5217 C161.4387,208.6707 166.2387,204.7757 166.2387,204.7757 C166.2387,204.7757 172.3537,197.4997 182.0587,195.1777 C188.4167,193.6567 200.0587,188.9577 201.7397,192.0097 C203.9317,195.9897 191.6147,198.6107 191.0877,201.8587 C190.0207,208.4387 209.0197,206.5397 212.5627,207.9367 C218.0027,210.0837 212.9537,222.2007 194.5227,225.1997 C189.4947,226.0187 184.4887,226.1877 177.1017,225.0417" id="Fill-29" fill="#FFAE92"></path>
            <path d="M213.8697,211.092 C213.8077,210.879 213.5847,210.755 213.3717,210.817 C210.4157,211.669 207.1857,212.079 203.8027,212.122 C201.3637,212.153 198.9887,211.993 196.7727,211.704 C196.1087,211.617 195.4997,211.524 194.9547,211.429 L194.3867,211.326 L193.9367,211.235 C193.7197,211.187 193.5047,211.323 193.4567,211.54 C193.4077,211.758 193.5447,211.972 193.7617,212.021 L193.9667,212.064 C194.0897,212.089 194.2297,212.116 194.3837,212.145 L194.5427,212.175 C195.1677,212.288 195.8797,212.4 196.6687,212.503 C198.9207,212.796 201.3337,212.959 203.8127,212.927 C207.2637,212.883 210.5627,212.464 213.5947,211.591 C213.8077,211.529 213.9317,211.306 213.8697,211.092" id="Fill-31" fill="#F17E55"></path>
            <path d="M211.5965,215.6936 C211.5255,215.4826 211.2975,215.3696 211.0865,215.4406 L210.9015,215.4986 C210.8575,215.5116 210.8075,215.5266 210.7515,215.5436 C210.4665,215.6256 210.1285,215.7156 209.7395,215.8096 C208.6215,216.0796 207.3165,216.3266 205.8345,216.5266 C201.5945,217.0986 196.8005,217.1696 191.5525,216.5356 C191.3315,216.5086 191.1305,216.6666 191.1045,216.8876 C191.0775,217.1086 191.2345,217.3086 191.4555,217.3356 C196.7745,217.9776 201.6365,217.9046 205.9425,217.3246 C207.4515,217.1216 208.7845,216.8686 209.9285,216.5926 L210.3845,216.4786 C210.5285,216.4406 210.6645,216.4036 210.7915,216.3686 L211.1365,216.2686 C211.2315,216.2396 211.3005,216.2176 211.3435,216.2036 C211.5545,216.1326 211.6675,215.9036 211.5965,215.6936" id="Fill-33" fill="#F17E55"></path>
            <path d="M204.0683,221.1765 C204.0263,220.9585 203.8163,220.8145 203.5973,220.8565 C199.8603,221.5675 196.9423,221.7655 194.4493,221.5825 C193.6373,221.5225 192.8953,221.4255 192.1053,221.2845 L191.5583,221.1815 C191.1803,221.1055 190.3493,220.9325 189.8573,220.8355 L189.5633,220.7795 C189.3443,220.7405 189.1353,220.8865 189.0963,221.1055 C189.0613,221.3025 189.1763,221.4915 189.3593,221.5555 L189.4233,221.5725 L189.7103,221.6275 C190.2743,221.7385 191.3053,221.9535 191.5543,222.0015 C192.5263,222.1885 193.4083,222.3125 194.3903,222.3845 C196.9563,222.5745 199.9443,222.3705 203.7483,221.6475 C203.9663,221.6055 204.1103,221.3945 204.0683,221.1765" id="Fill-35" fill="#F17E55"></path>
            <path d="M202.1211,191.8816 C202.0501,191.6706 201.8221,191.5576 201.6111,191.6276 C201.4001,191.6986 201.2871,191.9266 201.3581,192.1376 L201.4761,192.4956 C201.7701,193.4386 201.5631,193.6766 198.7501,195.5776 L197.6681,196.3056 C197.1671,196.6436 196.6711,196.9376 195.8171,197.4116 L194.8641,197.9386 C192.8011,199.0866 191.9491,199.6696 191.2491,200.5306 C190.2021,201.8196 190.2441,203.2626 191.5301,204.8976 C192.5531,206.1986 194.8081,207.0436 198.0661,207.5466 C199.5841,207.7806 201.2921,207.9356 203.1451,208.0186 C205.1791,208.1106 207.2801,208.1136 209.3301,208.0546 L210.0281,208.0316 C210.3661,208.0196 210.6891,208.0056 210.9951,207.9906 L212.0331,207.9326 C212.2551,207.9176 212.4221,207.7246 212.4071,207.5036 C212.3911,207.2806 212.1991,207.1136 211.9771,207.1296 L211.2531,207.1716 L210.6481,207.2006 C210.2291,207.2196 209.7811,207.2356 209.3071,207.2496 C207.2761,207.3086 205.1941,207.3056 203.1811,207.2146 C201.3551,207.1316 199.6761,206.9806 198.1891,206.7506 C195.1211,206.2776 193.0211,205.4896 192.1631,204.3996 C191.1021,203.0516 191.0731,202.0256 191.8741,201.0386 C192.5071,200.2586 193.3551,199.6926 195.4801,198.5176 L196.3941,198.0116 C197.1571,197.5856 197.6311,197.3016 198.1181,196.9736 L200.2711,195.5376 L200.5791,195.3236 C201.0611,194.9826 201.3891,194.7166 201.6441,194.4556 C202.3621,193.7176 202.4911,192.9846 202.1211,191.8816" id="Fill-37" fill="#F17E55"></path>
            <g transform="translate(214.000000, 161.627000)">
                <path d="M27.8909,0.4186 C27.8909,0.4186 2.1019,65.8736 0.4279,72.8136" id="Fill-39" fill="#FFE1DA"></path>
                <path d="M27.8909,0.4186 C27.8909,0.4186 2.1019,65.8736 0.4279,72.8136" id="Stroke-41" stroke="#721300" stroke-linecap="round" stroke-linejoin="round"></path>
            </g>
            <path d="M105.4185,249.1199 C105.4185,249.1199 89.5655,323.1009 177.4185,321.1199 C265.2715,319.1379 291.6325,318.0199 291.6325,318.0199 C291.6325,318.0199 297.3635,342.1259 299.4485,349.9469 C309.3045,386.9059 365.4095,484.8469 365.4095,484.8469 L399.8045,484.4249 C399.8045,484.4249 348.3445,257.4739 336.7225,250.1399 C325.1005,242.8049 105.4185,249.1199 105.4185,249.1199" id="Fill-42" fill="#202D49"></path>
            <path d="M161.2737,249.0744 C142.3137,249.0744 120.2657,269.9554 125.9537,340.6344 C131.6407,411.3134 148.2327,495.8634 148.2327,495.8634 L172.8887,495.8634 C172.8887,495.8634 190.9067,411.3134 196.5937,340.6344 C202.2817,269.9554 180.2337,249.0744 161.2737,249.0744" id="Fill-44" fill="#28365A"></path>
            <path d="M148.2278,495.8635 L172.8888,495.8635 L180.6698,515.6705 C181.5858,518.0025 179.8668,520.5245 177.3618,520.5245 L144.1088,520.5245 C141.6268,520.5245 139.9098,518.0455 140.7808,515.7225 L148.2278,495.8635 Z" id="Fill-46" fill="#19152D"></path>
            <mask id="mask-6" fill="white">
                <use xlink:href="#path-5"></use>
            </mask>
            <g id="Clip-49"></g>
            <polygon id="Fill-48" fill="#5369AB" mask="url(#mask-6)" points="0 259.26 537.687 259.26 537.687 246.592 0 246.592"></polygon>
            <polygon id="Fill-50" fill="#5369AB" mask="url(#mask-6)" points="292.291 521.8 295.263 521.8 295.263 256.941 292.291 256.941"></polygon>
            <polygon id="Fill-51" fill="#5369AB" mask="url(#mask-6)" points="194.927 522.502 395.6 522.502 395.6 519.809 194.927 519.809"></polygon>
            <path d="M200.9389,204.1345 C200.9389,204.1345 208.9219,206.9605 215.2599,203.6635 C223.1359,199.5675 221.3889,193.6205 221.3889,193.6205 C221.3889,193.6205 220.4859,184.1595 213.8159,176.7375 C209.4459,171.8745 202.5319,161.3955 199.4149,162.9545 C195.3499,164.9855 204.0009,174.1375 202.5899,177.1105 C199.7319,183.1315 185.1719,170.7805 181.4619,169.9195 C175.7649,168.5975 173.0399,181.4385 186.5089,194.3725 C190.1829,197.9015 194.2079,200.8835 200.9389,204.1345" id="Fill-52" fill="#FFAE92" mask="url(#mask-6)"></path>
            <path d="M178.5941,171.7742 C178.7661,171.6332 179.0201,171.6582 179.1611,171.8312 C181.1101,174.2112 183.5351,176.3812 186.2961,178.3382 C188.2861,179.7492 190.3321,180.9652 192.3201,181.9862 C192.9161,182.2922 193.4701,182.5612 193.9731,182.7932 L194.4991,183.0302 L194.9201,183.2102 C195.1271,183.2942 195.2261,183.5282 195.1431,183.7342 C195.0591,183.9412 194.8251,184.0402 194.6191,183.9572 L194.4251,183.8762 C194.3091,183.8262 194.1791,183.7692 194.0361,183.7052 L193.8881,183.6392 C193.3101,183.3782 192.6601,183.0652 191.9521,182.7022 C189.9321,181.6652 187.8531,180.4292 185.8301,178.9952 C183.0151,177.0002 180.5371,174.7812 178.5381,172.3402 C178.3971,172.1692 178.4221,171.9152 178.5941,171.7742" id="Fill-53" fill="#F17E55" mask="url(#mask-6)"></path>
            <path d="M177.8527,176.8528 C178.0307,176.7198 178.2827,176.7558 178.4157,176.9338 L178.5357,177.0868 C178.5647,177.1228 178.5967,177.1638 178.6337,177.2088 C178.8217,177.4388 179.0487,177.7048 179.3157,178.0028 C180.0817,178.8598 181.0167,179.8048 182.1227,180.8108 C185.2877,183.6878 189.1937,186.4688 193.8737,188.9278 C194.0707,189.0308 194.1467,189.2748 194.0427,189.4718 C193.9397,189.6678 193.6967,189.7438 193.4997,189.6408 C188.7567,187.1488 184.7957,184.3288 181.5807,181.4058 C180.4537,180.3818 179.5007,179.4168 178.7157,178.5398 L178.4047,178.1858 C178.3067,178.0738 178.2167,177.9668 178.1317,177.8658 L177.9047,177.5868 C177.8427,177.5098 177.7987,177.4528 177.7717,177.4158 C177.6377,177.2378 177.6747,176.9858 177.8527,176.8528" id="Fill-54" fill="#F17E55" mask="url(#mask-6)"></path>
            <path d="M180.9362,185.6409 C181.0942,185.4849 181.3492,185.4859 181.5052,185.6439 C184.1782,188.3519 186.4672,190.1719 188.6232,191.4359 C189.3262,191.8489 189.9922,192.1899 190.7222,192.5229 L191.2312,192.7479 C191.5852,192.8999 192.3672,193.2299 192.8272,193.4299 L193.1022,193.5509 C193.3042,193.6429 193.3932,193.8819 193.3002,194.0839 C193.2172,194.2659 193.0152,194.3559 192.8282,194.3049 L192.7662,194.2829 L192.4992,194.1649 C191.9712,193.9359 191.0012,193.5279 190.7692,193.4259 C189.8622,193.0269 189.0652,192.6289 188.2162,192.1309 C185.9962,190.8299 183.6532,188.9659 180.9322,186.2099 C180.7762,186.0519 180.7782,185.7969 180.9362,185.6409" id="Fill-55" fill="#F17E55" mask="url(#mask-6)"></path>
            <path d="M199.1732,162.6321 C199.3512,162.4991 199.6032,162.5351 199.7372,162.7131 C199.8702,162.8911 199.8342,163.1431 199.6562,163.2771 L199.3552,163.5041 C198.5782,164.1131 198.6132,164.4271 199.8492,167.5891 L200.3262,168.8021 C200.5472,169.3641 200.7882,169.8881 201.2222,170.7631 L201.7082,171.7391 C202.7542,173.8551 203.1242,174.8191 203.2112,175.9241 C203.3412,177.5811 202.4872,178.7441 200.5012,179.3601 C198.9192,179.8501 196.5832,179.2651 193.6162,177.8291 C192.2332,177.1601 190.7402,176.3171 189.1672,175.3341 C187.4402,174.2551 185.7092,173.0651 184.0552,171.8511 L183.4942,171.4371 C183.2222,171.2341 182.9642,171.0391 182.7212,170.8541 L181.9002,170.2161 C181.7262,170.0781 181.6972,169.8241 181.8362,169.6511 C181.9752,169.4771 182.2282,169.4481 182.4022,169.5871 L182.9742,170.0331 L183.4552,170.4011 C183.7902,170.6531 184.1492,170.9221 184.5322,171.2021 C186.1702,172.4041 187.8862,173.5831 189.5942,174.6521 C191.1442,175.6201 192.6122,176.4491 193.9662,177.1041 C196.7612,178.4571 198.9372,179.0011 200.2622,178.5901 C201.9012,178.0831 202.5082,177.2561 202.4082,175.9871 C202.3302,174.9861 201.9532,174.0391 200.8722,171.8661 L200.4062,170.9301 C200.0212,170.1461 199.7912,169.6431 199.5772,169.0971 L198.6192,166.6921 L198.4882,166.3411 C198.2852,165.7871 198.1652,165.3821 198.1042,165.0221 C197.9312,164.0071 198.2422,163.3301 199.1732,162.6321" id="Fill-56" fill="#F17E55" mask="url(#mask-6)"></path>
            <path d="M236.3227,188.5793 L272.0757,177.3223 C272.0757,177.3223 298.5277,225.1303 287.5237,233.2633 C266.5757,248.7463 206.5737,205.3113 206.5737,205.3113 L219.0867,185.9583 L236.3227,188.5793 Z" id="Fill-57" fill="#FFAE92" mask="url(#mask-6)"></path>
            <path d="M225.9234,186.9983 C225.9234,186.9983 251.4054,191.7593 254.8734,193.7403" id="Stroke-58" stroke="#F17E55" mask="url(#mask-6)"></path>
        </g>
    </g>
</svg>